<svg width="24" height="24" viewBox="0 0 24 24" fill="none" xmlns="http://www.w3.org/2000/svg">
  <path d="M12.001 18.75C11.591 18.75 11.251 18.41 11.251 18V15C11.251 14.59 11.591 14.25 12.001 14.25C12.411 14.25 12.751 14.59 12.751 15V18C12.751 18.41 12.411 18.75 12.001 18.75Z" fill="#F0D033"/>
  <path d="M17.601 22.56H6.401C4.581 22.56 2.921 21.16 2.621 19.37L1.291 11.4C1.071 10.16 1.681 8.57001 2.671 7.78001L9.601 2.23001C10.941 1.15001 13.051 1.16001 14.401 2.24001L21.331 7.78001C22.311 8.57001 22.911 10.16 22.711 11.4L21.381 19.36C21.081 21.13 19.381 22.56 17.601 22.56ZM11.991 2.93001C11.461 2.93001 10.931 3.09001 10.541 3.40001L3.611 8.96001C3.051 9.41001 2.651 10.45 2.771 11.16L4.101 19.12C4.281 20.17 5.331 21.06 6.401 21.06H17.601C18.671 21.06 19.721 20.17 19.901 19.11L21.231 11.15C21.341 10.45 20.941 9.39001 20.391 8.95001L13.461 3.41001C13.061 3.09001 12.521 2.93001 11.991 2.93001Z" fill="#F0D033"/>
</svg>
