 <svg width="327" height="257" viewBox="0 0 327 257" fill="none" xmlns="http://www.w3.org/2000/svg">
            <g filter="url(#filter0_d_593_472)">
              <path d="M15 63.0111C15 46.4426 28.4315 33 45 33H282C298.569 33 312 46.4315 312 63V210C312 226.569 298.569 240 282 240H45C28.4315 240 15 226.557 15 209.989C15 156.222 15 116.778 15 63.0111Z" fill="url(#paint0_linear_593_472)" />
            </g>
            <g clip-path="url(#clip0_593_472)">
              <path d="M99.4841 170.629C99.4841 170.629 54.3759 219.446 55.783 227.003C57.1901 234.559 139.22 230.54 139.22 230.54L134.4 213.116L82.0557 217.195L108.582 192.625L99.4841 170.629Z" fill="#DCE6EB" />
              <path d="M79.3996 183.706L98.7477 208.48L145.249 192.625L133.416 153.516C133.416 153.516 118.12 143.172 79.3996 183.706Z" fill="#1E4F7C" />
              <path d="M252.754 138.676C252.754 138.676 265.135 215.553 260.089 222.207C255.044 228.861 200.141 183.706 200.141 183.706L211.522 158.321L241.904 189.253L245.047 139.131L252.754 138.676Z" fill="#DCE6EB" />
              <path d="M238.636 175.753L217.492 205.114L195 173.562L187.296 147.496C187.296 147.496 219.717 138.514 238.636 175.753Z" fill="#1E4F7C" />
              <path d="M204.856 234.619C204.856 234.619 220.476 156.373 211.761 150.296C203.046 144.218 123.685 149.264 121.857 153.85C120.029 158.437 128.741 236.779 128.741 236.779L204.856 234.619Z" fill="#1E4F7C" />
              <path d="M166.534 124.409L169.611 147.042L187.296 147.497C187.296 147.497 179.625 176.812 165.083 173.265C150.54 169.718 144.383 149.507 144.383 149.507L157.482 148.063L153.054 129.706L166.534 124.409Z" fill="#DCE6EB" />
              <path d="M181.36 31.4384C181.36 31.4384 200.027 11.6239 182.69 7.86745C165.352 4.11099 164.3 16.8251 171.039 15.9582C177.778 15.0912 174.697 -1.37939 162.656 2.95538C150.616 7.29015 154.661 20.5997 157.551 16.8342C160.44 13.0687 154.95 -4.56307 143.392 2.22999C131.834 9.02306 132.068 24.3381 137.585 17.6921C143.103 11.0461 134.447 -5.4245 123.461 4.11099C112.474 13.6465 120.578 28.0945 123.461 24.0489C126.344 20.0033 117.097 7.21033 109.584 16.0631C102.071 24.9159 104.961 37.7862 110.451 34.3851C115.942 30.9841 105.674 22.8798 101.417 32.5664C97.1593 42.2529 111.16 50.2488 116.007 48.5626" fill="#3363A1" />
              <path d="M114.458 49.4823C111.097 49.4823 106.34 47.1751 103.253 43.8333C99.9584 40.2671 99.0819 36.1673 100.787 32.2893C101.809 29.962 103.118 28.6935 104.353 28.0148C104.365 24.2121 105.705 19.5706 109.059 15.6189C111.529 12.7098 114.545 11.7098 117.503 12.6802C118.081 9.81928 119.592 6.55829 123.01 3.59097C127.518 -0.322122 132.425 -0.491296 136.129 3.13164C136.88 3.86657 137.547 4.74155 138.105 5.70338C139.46 4.18082 141.103 2.77672 143.043 1.63718C147.53 -1.00183 151.783 -0.436075 155.021 3.22702C155.719 4.01566 156.328 4.9042 156.845 5.84194C158.177 4.42278 160.003 3.17883 162.422 2.30786C166.334 0.898241 169.856 1.45847 172.334 3.88112C173.128 4.65772 173.78 5.61302 174.261 6.65166C176.442 6.34946 179.249 6.41673 182.835 7.19432C186.988 8.09341 189.539 9.98394 190.416 12.8097C192.728 20.2594 182.305 31.4379 181.86 31.9093C181.6 32.1859 181.164 32.1984 180.887 31.9389C180.611 31.6784 180.598 31.2426 180.858 30.966C180.961 30.8561 191.177 19.902 189.102 13.2153C188.382 10.8986 186.175 9.32532 182.543 8.53768C179.283 7.83237 176.737 7.73699 174.765 7.95987C175.333 9.78465 175.4 11.7359 174.852 13.3749C174.223 15.2519 172.901 16.4115 171.126 16.6405C169.329 16.8744 167.791 16.2318 167.013 14.9286C166.176 13.5255 166.36 11.6767 167.492 10.1019C168.026 9.35895 169.554 7.69281 172.875 6.90768C172.495 6.17376 171.998 5.47648 171.372 4.86404C169.9 3.42631 167.232 2.03828 162.888 3.60251C160.347 4.51615 158.638 5.79676 157.491 7.14312C159.233 11.0562 159.484 15.4422 158.095 17.2519C157.235 18.3714 156.314 18.2152 155.957 18.0983C154.702 17.6816 153.838 15.8006 153.809 13.4166C153.784 11.3931 154.389 9.06829 155.899 6.98298C155.384 5.96844 154.748 4.99556 153.989 4.13714C152.041 1.93336 148.682 -0.0836716 143.739 2.8214C141.707 4.01616 140.066 5.46443 138.768 6.99503C140.418 10.6742 140.559 15.1852 138.114 18.1304C136.875 19.6233 135.75 20.2333 134.767 19.9471C134.298 19.8101 133.481 19.3277 133.272 17.6384C132.942 14.9844 134.198 10.6737 137.158 6.84292C136.615 5.8068 135.939 4.86906 135.166 4.11405C131.981 0.999142 127.88 1.18488 123.91 4.63011C120.659 7.45034 119.287 10.5557 118.8 13.2369C119.294 13.5005 119.785 13.8202 120.269 14.1962C123.557 16.7559 125.912 21.791 124.02 24.4476C123.476 25.2096 122.715 25.5429 121.886 25.4014C120.233 25.1097 118.563 22.8884 117.728 19.8748C117.449 18.8658 116.999 16.7102 117.287 14.0617C115.332 13.3363 112.74 13.4046 110.107 16.5074C107.161 19.9798 105.878 24.0751 105.731 27.4671C106.528 27.2613 107.22 27.2628 107.68 27.3044C110.032 27.5193 112.157 29.1709 112.623 31.1463C112.976 32.6447 112.316 34.0378 110.812 34.969C109.094 36.0332 107.395 35.8113 106.146 34.3641C105.249 33.3229 104.633 31.6322 104.427 29.5901C103.593 30.2135 102.755 31.2266 102.044 32.842C100.16 37.1301 102.21 40.6772 104.262 42.8986C107.814 46.7429 113.37 48.7534 115.779 47.912C116.136 47.7911 116.53 47.9763 116.654 48.3367C116.779 48.6957 116.59 49.0877 116.23 49.2127C115.709 49.395 115.109 49.4823 114.458 49.4823ZM105.738 28.8923C105.846 30.8837 106.373 32.5192 107.19 33.4665C107.982 34.3882 108.958 34.4986 110.089 33.8013C111.086 33.1834 111.5 32.3741 111.285 31.4645C110.954 30.0614 109.316 28.836 107.556 28.6764C107.072 28.6292 106.436 28.6548 105.738 28.8923ZM118.612 14.7173C118.449 16.8995 118.819 18.6545 119.056 19.5089C119.811 22.2378 121.201 23.8838 122.125 24.0465C122.33 24.0856 122.6 24.0706 122.9 23.6499C124.185 21.8452 122.431 17.6234 119.424 15.2825C119.184 15.0953 118.911 14.9015 118.612 14.7173ZM137.79 8.25003C135.252 11.7962 134.398 15.533 134.638 17.4708C134.734 18.2418 134.976 18.5767 135.154 18.6279C135.378 18.7072 136.038 18.4803 137.056 17.2534C138.979 14.9367 138.962 11.3434 137.79 8.25003ZM156.554 8.44882C155.312 10.5196 155.175 12.5215 155.186 13.4016C155.21 15.3609 155.901 16.6304 156.392 16.7946C156.607 16.8603 156.841 16.6264 157.004 16.4141C157.943 15.1917 157.846 11.7721 156.554 8.44882ZM173.41 8.18276C170.404 8.83034 169.071 10.2641 168.61 10.9051C167.803 12.0286 167.644 13.3012 168.195 14.2243C168.69 15.0546 169.696 15.4377 170.951 15.2765C172.518 15.0747 173.228 13.894 173.548 12.9397C173.976 11.6591 173.973 9.89358 173.41 8.18276Z" fill="#251626" />
              <path d="M115.8 45.4086C115.8 45.4086 147.722 12.9292 181.36 31.4384C206.528 45.2871 196.529 134.603 154.148 129.603C124.107 126.059 102.351 64.1538 115.8 45.4086Z" fill="#DCE6EB" />
              <path d="M115.799 45.4086C115.799 45.4086 118.898 103.644 133.153 109.114C158.737 118.932 124.558 85.4059 160.072 87.5048C182.845 88.8507 162.493 107.936 181.92 103.116C196.532 99.4921 185.553 36.5016 183.669 33.0358C181.785 29.57 208.156 45.142 195.921 84.5862C191.817 97.8154 224.547 106.462 199.655 126.691C155.465 162.602 94.1015 129.955 109.656 109.998C131.057 82.5425 77.1455 80.0978 115.799 45.4086Z" fill="#3363A1" />
              <path d="M168.973 87.3445C168.916 87.3445 168.856 87.3405 168.796 87.3325C165.832 86.9093 156.198 84.5172 155.789 84.4153C155.42 84.324 155.196 83.9505 155.287 83.581C155.378 83.213 155.752 82.9897 156.121 83.08C156.217 83.1041 165.457 85.3978 168.682 85.9233C168.6 83.8054 163.874 74.1429 159.082 65.5281C158.897 65.1963 159.016 64.7771 159.348 64.5929C159.68 64.4076 160.099 64.5271 160.284 64.8589C164.409 72.2735 171.133 84.9987 169.821 86.9083C169.627 87.1914 169.323 87.3445 168.973 87.3445Z" fill="#251626" />
              <path d="M155.331 110.77C154.918 110.77 154.524 110.633 154.169 110.361C151.15 108.054 151.417 94.6502 151.458 93.1291C151.468 92.7486 151.81 92.4454 152.164 92.46C152.544 92.4705 152.844 92.7863 152.834 93.1668C152.689 98.6396 153.15 107.851 155.005 109.267C155.171 109.395 155.317 109.421 155.517 109.364C158.602 108.435 163.946 98.7204 165.745 95.0548C165.913 94.715 166.323 94.5779 166.665 94.7406C167.007 94.9087 167.147 95.3209 166.979 95.6622C166.291 97.0653 160.129 109.411 155.913 110.681C155.717 110.74 155.522 110.77 155.331 110.77Z" fill="#251626" />
              <path d="M142.27 71.8755C142.264 71.8755 142.259 71.8755 142.254 71.8755C139.156 71.8484 137.378 62.9344 136.907 60.2025C136.843 59.8275 137.094 59.4731 137.468 59.4069C137.842 59.3451 138.199 59.5936 138.263 59.9686C139.139 65.0453 140.957 70.4875 142.266 70.4996C142.268 70.4996 142.269 70.4996 142.27 70.4996C143.501 70.4996 144.533 65.0398 144.689 60.1343C144.701 59.7538 144.986 59.4636 145.398 59.4676C145.778 59.4797 146.076 59.7979 146.064 60.1769C145.977 62.9254 145.445 71.8755 142.27 71.8755Z" fill="#251626" />
              <path d="M174.7 71.5492C174.695 71.5492 174.69 71.5492 174.685 71.5492C171.672 71.5211 168.314 62.6779 167.356 59.9691C167.229 59.6102 167.418 59.2166 167.776 59.0901C168.135 58.9626 168.527 59.1518 168.653 59.5093C170.462 64.6277 173.287 70.1597 174.697 70.1733C174.699 70.1733 174.7 70.1733 174.701 70.1733C175.932 70.1733 176.964 64.7135 177.12 59.808C177.132 59.4274 177.401 59.1212 177.83 59.1413C178.209 59.1533 178.507 59.4716 178.495 59.8506C178.407 62.5986 177.875 71.5492 174.7 71.5492Z" fill="#251626" />
              <path d="M103.96 85.9215C108.681 85.9215 112.507 82.095 112.507 77.3749C112.507 72.6548 108.681 68.8284 103.96 68.8284C99.2403 68.8284 95.4139 72.6548 95.4139 77.3749C95.4139 82.095 99.2403 85.9215 103.96 85.9215Z" fill="#DCE6EB" />
              <path d="M202.003 75.0958C206.406 75.0958 209.974 71.5272 209.974 67.1251C209.974 62.7229 206.406 59.1543 202.003 59.1543C197.601 59.1543 194.033 62.7229 194.033 67.1251C194.033 71.5272 197.601 75.0958 202.003 75.0958Z" fill="#DCE6EB" />
              <path d="M106.973 82.3086C106.963 82.3086 106.954 82.3086 106.945 82.3086C106.565 82.2925 106.27 81.9727 106.285 81.5922C106.371 79.4492 105.861 77.9291 104.769 77.0747C102.861 75.5858 99.7094 76.4794 99.6778 76.4864C99.3158 76.5963 98.9318 76.3845 98.8244 76.02C98.7174 75.6561 98.9258 75.2741 99.2897 75.1666C99.4443 75.1209 103.14 74.0622 105.61 75.9864C107.075 77.1284 107.764 79.034 107.659 81.649C107.645 82.0179 107.34 82.3086 106.973 82.3086Z" fill="#251626" />
              <path d="M200.891 73.5407C200.602 73.5407 200.334 73.358 200.238 73.0678C199.128 69.7029 199.196 67.1904 200.441 65.6006C201.868 63.7773 204.254 63.9409 204.358 63.944C204.737 63.9736 205.021 64.3039 204.992 64.6829C204.962 65.0604 204.621 65.34 204.257 65.3169C204.237 65.3184 202.483 65.212 201.517 66.458C200.594 67.6487 200.604 69.7852 201.545 72.6376C201.664 72.9975 201.468 73.3876 201.107 73.5055C201.036 73.5296 200.963 73.5407 200.891 73.5407Z" fill="#251626" />
              <path d="M131.608 91.4817C136.108 91.4817 139.756 87.8339 139.756 83.3342C139.756 78.8345 136.108 75.1868 131.608 75.1868C127.109 75.1868 123.461 78.8345 123.461 83.3342C123.461 87.8339 127.109 91.4817 131.608 91.4817Z" fill="#CBD6FF" />
              <path d="M179.187 88.0259C183.686 88.0259 187.334 84.3781 187.334 79.8784C187.334 75.3787 183.686 71.731 179.187 71.731C174.687 71.731 171.039 75.3787 171.039 79.8784C171.039 84.3781 174.687 88.0259 179.187 88.0259Z" fill="#CBD6FF" />
              <path d="M147.894 139.364C141.435 139.364 138.072 135.637 136.572 131.987C134.841 132.967 132.172 133.683 128.077 133.443C119.952 132.955 116.536 126.837 116.048 121.274C116.048 121.271 116.048 121.27 116.048 121.268C114.81 121.358 113.501 121.064 112.179 120.365C109.371 118.882 108.229 115.795 108.961 111.673C109.329 109.598 110.137 107.449 111.165 105.545C108.691 104.555 108.002 102.668 107.907 101.095C107.766 98.7621 108.9 95.9469 110.395 93.5458C109.529 93.073 108.92 92.3943 108.576 91.5153C107.315 88.3025 110.271 83.6072 110.398 83.41C110.603 83.0902 111.028 82.9973 111.348 83.1991C111.668 83.4034 111.762 83.8291 111.559 84.1489C110.802 85.3381 109.022 88.8898 109.857 91.0153C110.094 91.6162 110.523 92.0715 111.16 92.3938C112.719 90.198 114.48 88.5399 115.583 88.2618C116.471 88.0399 117.245 88.2979 117.709 88.9726C118.343 89.8943 118.219 91.3456 117.407 92.5042C116.865 93.2768 115.229 94.9781 111.717 94.0574C111.714 94.0574 111.711 94.0559 111.707 94.0549C110.297 96.2612 109.152 98.8952 109.279 101.013C109.378 102.652 110.228 103.753 111.865 104.342C113.517 101.702 115.551 99.7496 117.264 99.5181C118.91 99.2897 120.591 100.027 121.437 101.343C122.068 102.325 122.107 103.448 121.539 104.349C120.93 105.312 119.076 106.825 113.483 106.116C113.144 106.073 112.824 106.018 112.524 105.953C111.511 107.762 110.68 109.861 110.315 111.913C109.877 114.378 109.957 117.634 112.82 119.147C114.043 119.794 115.096 119.973 115.985 119.889C115.976 116.222 117.252 113.297 119.174 112.837C120.197 112.593 121.036 112.901 121.48 113.683C122.281 115.088 121.552 117.66 119.854 119.412C119.124 120.166 118.297 120.695 117.405 120.994C117.409 121.046 117.414 121.1 117.418 121.153C117.855 126.145 120.907 131.634 128.158 132.069C132.169 132.304 134.612 131.589 136.106 130.671C135.839 129.777 135.68 128.916 135.608 128.149C135.353 125.422 136.037 123.524 137.351 123.31C138.07 123.186 138.765 123.532 139.261 124.24C140.026 125.332 140.342 127.419 139.224 129.417C138.929 129.945 138.463 130.578 137.736 131.186C139.046 134.576 142.154 138.176 148.287 137.984C151.761 137.897 154.587 136.566 156.704 134.783C156.195 134.435 155.793 134.079 155.481 133.753C153.863 132.055 153.278 129.742 153.918 127.563C154.549 125.413 156.245 123.81 158.456 123.273C160.363 122.814 161.391 123.472 161.918 124.11C162.989 125.405 162.913 127.839 161.72 130.458C161.119 131.779 160.214 133.179 159.02 134.469C161.256 135.372 164.882 135.819 170.662 134.415C176.627 132.968 179.62 130.85 181.114 128.997C178.95 128.239 177.374 126.873 176.925 125.28C176.534 123.895 177.039 122.492 178.345 121.331C179.294 120.486 180.528 120.327 181.643 120.916C183.248 121.758 184.183 123.856 183.916 126.018C183.851 126.55 183.683 127.284 183.28 128.125C185.2 128.417 190.781 128.653 195.123 122.694C196.186 121.235 197.002 119.923 197.611 118.755C196.268 118.076 195.113 117.151 194.328 116.176C192.825 114.307 192.762 112.42 194.164 111.251C195.881 109.82 198.081 109.675 199.395 110.903C200.025 111.494 201.454 113.464 199.476 118.045C201.53 118.734 203.849 118.704 205.683 117.282C208.037 115.455 208.408 110.78 206.585 105.914C205.644 103.406 203.97 100.675 201.717 99.0086C201.444 99.9197 200.935 100.633 200.118 101.019C197.902 102.064 195.585 101.362 194.37 100.266C193.523 99.5001 193.187 98.5568 193.474 97.7411C193.718 97.0503 194.487 96.2009 196.772 96.0709C198.15 95.9901 199.43 96.2592 200.6 96.7737C200.559 95.352 200.179 93.5544 199.46 91.6167C199.038 90.4756 198.543 89.4224 198.017 88.5033C197.097 89.0138 196.006 89.1323 194.867 88.8085C193.125 88.314 191.764 86.9204 191.768 85.6333C191.769 85.1885 191.956 84.1042 193.652 83.6354C195.27 83.1986 196.916 84.427 198.322 86.4009C198.368 86.3351 198.414 86.2653 198.458 86.1925C200.912 82.1791 195.532 77.0486 195.477 76.9959C195.201 76.7364 195.187 76.3011 195.447 76.0245C195.707 75.7479 196.143 75.7344 196.419 75.9924C196.675 76.2344 202.67 81.9426 199.633 86.9104C199.473 87.1709 199.298 87.4089 199.107 87.6227C199.735 88.699 200.295 89.9068 200.751 91.1393C201.512 93.1924 202.058 95.5684 201.958 97.5096C204.746 99.3118 206.777 102.507 207.873 105.432C209.592 110.017 209.842 115.796 206.527 118.368C204.184 120.189 201.337 120.183 198.88 119.303C198.244 120.536 197.383 121.93 196.237 123.504C192.869 128.127 187.848 130.349 182.822 129.445C182.725 129.427 182.628 129.409 182.531 129.389C180.969 131.577 177.718 134.122 170.988 135.755C164.462 137.337 160.418 136.654 157.972 135.505C155.604 137.632 152.362 139.259 148.325 139.361C148.179 139.363 148.035 139.364 147.894 139.364ZM159.649 124.493C159.39 124.493 159.101 124.532 158.783 124.61C157.055 125.029 155.73 126.278 155.239 127.949C154.74 129.651 155.203 131.464 156.478 132.802C156.787 133.126 157.199 133.481 157.742 133.82C158.962 132.571 159.877 131.187 160.468 129.887C161.412 127.815 161.568 125.845 160.857 124.985C160.588 124.657 160.183 124.493 159.649 124.493ZM137.624 124.663C137.607 124.663 137.59 124.664 137.572 124.667C137.326 124.707 136.77 125.8 136.978 128.021C137.028 128.551 137.125 129.133 137.278 129.74C137.615 129.392 137.854 129.047 138.024 128.745C138.815 127.33 138.679 125.805 138.135 125.028C138.036 124.887 137.844 124.663 137.624 124.663ZM180.268 121.939C179.956 121.939 179.61 122.046 179.259 122.36C178.343 123.174 178.004 124.031 178.25 124.906C178.595 126.129 180.007 127.224 181.906 127.808C182.326 127.021 182.491 126.335 182.551 125.849C182.772 124.058 181.939 122.624 181.003 122.132C180.801 122.026 180.549 121.939 180.268 121.939ZM119.834 114.13C119.741 114.13 119.63 114.144 119.494 114.176C118.437 114.429 117.442 116.587 117.367 119.524C118.019 119.23 118.519 118.815 118.866 118.456C120.308 116.967 120.669 115.038 120.285 114.364C120.241 114.288 120.152 114.13 119.834 114.13ZM197.184 111.441C196.501 111.441 195.73 111.736 195.046 112.306C193.931 113.236 194.922 114.718 195.401 115.312C196.079 116.154 197.069 116.937 198.208 117.513C199.505 114.534 199.289 112.688 198.455 111.907C198.12 111.594 197.675 111.441 197.184 111.441ZM113.286 104.698C113.407 104.718 113.53 104.735 113.657 104.751C118.819 105.41 120.104 104.047 120.376 103.614C120.758 103.01 120.48 102.399 120.28 102.088C119.812 101.359 118.755 100.713 117.449 100.881C116.29 101.039 114.694 102.556 113.286 104.698ZM197.244 97.4318C197.113 97.4318 196.983 97.4358 196.85 97.4424C195.487 97.5202 194.884 97.8831 194.773 98.1974C194.68 98.4619 194.884 98.8721 195.294 99.2415C196.181 100.044 197.883 100.549 199.532 99.7721C200.018 99.5422 200.34 99.0061 200.495 98.2416C199.499 97.7305 198.413 97.4318 197.244 97.4318ZM112.545 92.835C114.209 93.1508 115.554 92.7532 116.28 91.7145C116.793 90.9836 116.832 90.1277 116.575 89.7542C116.523 89.6789 116.389 89.4776 115.918 89.5981C115.193 89.7793 113.841 91.072 112.545 92.835ZM194.304 84.922C194.205 84.922 194.109 84.9355 194.017 84.9611C193.619 85.0701 193.145 85.2769 193.144 85.6368C193.142 86.2267 194.039 87.1418 195.242 87.4817C195.741 87.6253 196.524 87.7262 197.283 87.3366C196.241 85.8422 195.155 84.922 194.304 84.922Z" fill="#251626" />
              <path d="M104.088 240.577L91.306 164.921L236.835 164.458L229.229 240.863L104.088 240.577Z" fill="#555A7D" />
              <path d="M162.858 198.271L167.789 189.253L170.866 198.553L181.4 200.041L171.941 204.758L173.706 216.438L166.824 206.441L156.785 214.048L160.603 203.863L151.36 199.394L162.858 198.271Z" fill="white" />
              <path d="M239.066 122.061C241.101 115.499 243.833 106.573 245.191 107.584C247.034 108.957 245.595 121.006 245.595 121.006C245.595 121.006 256.406 102.763 257.328 105.086C258.25 107.409 251.796 123.245 251.796 123.245C251.796 123.245 262.86 108.146 264.243 110.082C265.626 112.018 256.406 128.085 256.406 128.085C256.406 128.085 268.392 116.942 268.853 119.32C269.314 121.699 256.445 139.824 249.03 139.838C237.117 139.862 238.337 124.412 239.066 122.061Z" fill="#DCE6EB" />
              <path d="M249.873 135.462C249.846 135.462 249.819 135.461 249.791 135.457C249.414 135.413 249.144 135.071 249.189 134.694C249.638 130.872 249.663 124.406 247.819 123.325C247.276 123.007 246.478 123.223 245.45 123.966C245.142 124.189 244.712 124.12 244.489 123.814C244.266 123.506 244.335 123.076 244.642 122.853C246.153 121.758 247.456 121.519 248.514 122.138C251.731 124.023 250.684 133.752 250.555 134.856C250.514 135.204 250.217 135.462 249.873 135.462Z" fill="#251626" />
              <path d="M247.586 173.275C247.357 173.275 247.133 173.161 247.002 172.954C246.252 171.761 246.738 168.206 246.905 167.145C246.964 166.77 247.312 166.516 247.691 166.572C248.067 166.632 248.323 166.984 248.265 167.36C247.96 169.298 247.848 171.714 248.167 172.22C248.37 172.542 248.273 172.967 247.951 173.169C247.838 173.241 247.711 173.275 247.586 173.275Z" fill="#251626" />
              <path d="M84.9265 223.133C84.7333 223.133 84.54 223.051 84.4045 222.892C84.157 222.605 84.1901 222.169 84.4783 221.922C85.5485 221.004 89.1358 220.971 90.2091 220.975C90.5896 220.979 90.8943 221.289 90.8908 221.669C90.8873 222.048 90.5926 222.418 90.1965 222.351C88.2252 222.344 85.8281 222.576 85.3738 222.968C85.2443 223.077 85.0852 223.133 84.9265 223.133Z" fill="#251626" />
              <path d="M92.571 222.985C92.3778 222.985 92.1845 222.903 92.0484 222.744C91.801 222.455 91.8346 222.021 92.1237 221.774C93.1935 220.859 96.7883 220.835 97.8541 220.827C98.2336 220.829 98.5393 221.141 98.5358 221.52C98.5323 221.901 98.1718 222.165 97.8415 222.203C95.8656 222.195 93.4731 222.43 93.0183 222.82C92.8888 222.931 92.7297 222.985 92.571 222.985Z" fill="#251626" />
              <path d="M89.9324 227.462C89.7392 227.462 89.5459 227.38 89.4103 227.221C89.1629 226.934 89.196 226.5 89.4841 226.251C90.5539 225.333 94.1402 225.304 95.215 225.304C95.5955 225.308 95.9002 225.618 95.8967 225.998C95.8932 226.376 95.5855 226.68 95.209 226.68C95.1281 226.665 95.0734 226.678 95.0051 226.678C93.0825 226.678 90.8195 226.919 90.3802 227.296C90.2512 227.407 90.0916 227.462 89.9324 227.462Z" fill="#251626" />
              <path d="M247.586 163.341C247.357 163.341 247.133 163.226 247.002 163.019C246.252 161.826 246.738 158.272 246.905 157.21C246.964 156.835 247.312 156.584 247.691 156.638C248.067 156.697 248.323 157.049 248.265 157.425C247.96 159.363 247.848 161.779 248.167 162.286C248.37 162.607 248.273 163.033 247.951 163.235C247.838 163.307 247.711 163.341 247.586 163.341Z" fill="#251626" />
              <path d="M252.141 169.877C251.913 169.877 251.689 169.762 251.558 169.555C250.808 168.362 251.294 164.808 251.46 163.746C251.52 163.371 251.87 163.119 252.247 163.174C252.623 163.233 252.879 163.585 252.82 163.96C252.516 165.899 252.404 168.315 252.723 168.821C252.925 169.144 252.828 169.568 252.507 169.77C252.393 169.843 252.266 169.877 252.141 169.877Z" fill="#251626" />
              <path d="M252.44 179.585C252.212 179.585 251.988 179.471 251.857 179.264C251.107 178.07 251.593 174.516 251.76 173.455C251.819 173.08 252.169 172.827 252.546 172.882C252.922 172.942 253.178 173.293 253.12 173.67C252.814 175.608 252.703 178.024 253.022 178.53C253.225 178.852 253.128 179.277 252.806 179.479C252.692 179.551 252.565 179.585 252.44 179.585Z" fill="#251626" />
              <path d="M247.437 183.013C247.208 183.013 246.984 182.898 246.853 182.691C246.103 181.498 246.589 177.944 246.756 176.882C246.815 176.507 247.165 176.251 247.542 176.31C247.918 176.369 248.174 176.721 248.116 177.098C247.811 179.035 247.699 181.452 248.018 181.958C248.221 182.279 248.124 182.705 247.802 182.907C247.689 182.979 247.562 183.013 247.437 183.013Z" fill="#251626" />
              <path d="M251.843 158.241C251.615 158.241 251.391 158.127 251.26 157.92C250.51 156.727 250.996 153.172 251.162 152.111C251.222 151.736 251.571 151.482 251.949 151.538C252.325 151.598 252.581 151.95 252.522 152.325C252.218 154.264 252.106 156.679 252.425 157.186C252.627 157.508 252.53 157.933 252.209 158.135C252.095 158.208 251.968 158.241 251.843 158.241Z" fill="#251626" />
              <path d="M285.736 59.1749C285.736 59.1749 266.685 35.2179 246.302 44.4869C229.405 52.171 220.632 78.5837 237.987 91.1141L236.43 102.567L247.011 95.5157C248.628 96.0257 250.339 96.475 252.198 96.8229C287.079 103.345 295.964 73.4096 285.736 59.1749Z" fill="#F0D033" />
              <path d="M246.172 73.3344C243.87 73.3344 241.997 71.4614 241.997 69.1597C241.997 66.8581 243.87 64.9851 246.172 64.9851C248.474 64.9851 250.347 66.8581 250.347 69.1597C250.347 71.4609 248.474 73.3344 246.172 73.3344ZM246.172 66.221C244.551 66.221 243.233 67.5388 243.233 69.1597C243.233 70.7807 244.552 72.0984 246.172 72.0984C247.792 72.0984 249.111 70.7807 249.111 69.1597C249.111 67.5388 247.792 66.221 246.172 66.221Z" fill="#241726" />
              <path d="M259.126 76.3041C256.823 76.3041 254.951 74.4311 254.951 72.1295C254.951 69.8278 256.823 67.9548 259.126 67.9548C261.428 67.9548 263.3 69.8278 263.3 72.1295C263.3 74.4311 261.427 76.3041 259.126 76.3041ZM259.126 69.1908C257.505 69.1908 256.187 70.5085 256.187 72.1295C256.187 73.7504 257.506 75.0682 259.126 75.0682C260.746 75.0682 262.064 73.7504 262.064 72.1295C262.064 70.5085 260.746 69.1908 259.126 69.1908Z" fill="#241726" />
              <path d="M274.719 80.3437C272.417 80.3437 270.545 78.4707 270.545 76.169C270.545 73.8674 272.417 71.9944 274.719 71.9944C277.021 71.9944 278.894 73.8674 278.894 76.169C278.894 78.4707 277.021 80.3437 274.719 80.3437ZM274.719 73.2303C273.099 73.2303 271.78 74.5481 271.78 76.169C271.78 77.79 273.099 79.1077 274.719 79.1077C276.34 79.1077 277.658 77.79 277.658 76.169C277.658 74.5481 276.34 73.2303 274.719 73.2303Z" fill="#241726" />
            </g>
            <defs>
              <filter id="filter0_d_593_472" x="0" y="20" width="327" height="237" filterUnits="userSpaceOnUse" color-interpolation-filters="sRGB">
                <feFlood flood-opacity="0" result="BackgroundImageFix" />
                <feColorMatrix in="SourceAlpha" type="matrix" values="0 0 0 0 0 0 0 0 0 0 0 0 0 0 0 0 0 0 127 0" result="hardAlpha" />
                <feOffset dy="2" />
                <feGaussianBlur stdDeviation="7.5" />
                <feComposite in2="hardAlpha" operator="out" />
                <feColorMatrix type="matrix" values="0 0 0 0 0.00677083 0 0 0 0 0.0249167 0 0 0 0 0.0416667 0 0 0 0.2 0" />
                <feBlend mode="normal" in2="BackgroundImageFix" result="effect1_dropShadow_593_472" />
                <feBlend mode="normal" in="SourceGraphic" in2="effect1_dropShadow_593_472" result="shape" />
              </filter>
              <linearGradient id="paint0_linear_593_472" x1="163.5" y1="33" x2="163.5" y2="240" gradientUnits="userSpaceOnUse">
                <stop stop-color="#101C42" />
                <stop offset="1" stop-color="#213A59" />
              </linearGradient>
              <clipPath id="clip0_593_472">
                <rect x="42" width="251" height="251" fill="white" />
              </clipPath>
            </defs>
          </svg>