<svg width="189" height="189" viewBox="0 0 189 189" fill="none" xmlns="http://www.w3.org/2000/svg">
<g clip-path="url(#clip0_1381_1340)">
<path d="M84.7007 162.878L88.4652 181.073L116.474 162.878C116.474 162.878 123.755 174.798 127.352 175.456C130.948 176.113 122.465 162.878 122.465 162.878C122.465 162.878 130.947 175.456 133.25 174.14C135.552 172.824 127.352 162.793 127.352 162.793C127.352 162.793 132.894 170.521 135.704 169.206C138.513 167.89 126.569 152.308 122.465 153.088C118.361 153.868 84.7007 162.878 84.7007 162.878Z" fill="#CBD6FF"/>
<path d="M106.858 153.088L82.6951 160.325L77.679 118.385C77.679 118.385 95.267 122.04 106.858 153.088Z" fill="url(#paint0_linear_1381_1340)"/>
<path d="M40.5439 41.5804C40.5439 41.5804 30.4203 18.9094 42.6921 7.38423C54.9638 -4.141 77.939 -3.81214 87.1743 20.1999C87.1743 20.1999 69.5429 52.1062 40.5439 41.5804Z" fill="#568CBB"/>
<path d="M74.9979 31.0546C74.9979 31.0546 71.0561 3.42429 88.009 5.39783C104.962 7.37137 140.276 42.9434 110.449 49.9916C110.449 49.9916 76.6112 43.8828 74.9979 31.0546Z" fill="#3466A5"/>
<path d="M109.959 47.1566C109.703 47.0652 109.569 46.7828 109.661 46.5261C109.752 46.2691 110.033 46.1364 110.291 46.2267C113.801 47.4772 117.075 46.438 119.278 43.377C121.696 40.0158 122.02 35.3846 120.015 32.8346C119.514 32.1961 118.955 31.749 118.363 31.5021C118.511 33.6371 118.254 35.5067 117.502 36.5114C116.846 37.3868 115.853 37.642 114.711 37.2307C113.445 36.7749 112.725 35.8215 112.734 34.6138C112.749 32.9245 114.166 31.1215 115.962 30.5091C116.401 30.3587 116.863 30.2827 117.275 30.2891C116.882 27.5804 115.874 24.5999 114.48 22.6894C113.426 21.2496 111.808 21.2156 110.717 21.4008C110.883 22.2408 110.984 23.0637 111.024 23.848C111.157 26.5035 110.552 28.4335 109.363 29.1438C108.823 29.4666 107.905 29.6874 106.602 28.8996C105.145 28.0192 104.458 26.7756 104.669 25.3971C104.966 23.4609 107.06 21.464 109.547 20.6743C108.572 16.7715 106.183 12.6951 102.298 10.872C100.082 9.83215 98.2139 9.64088 96.8387 10.2986C99.1449 11.8303 99.9822 13.433 100.283 14.3228C100.791 15.8272 100.547 17.3188 99.6306 18.3137C98.8463 19.1657 97.7187 19.4855 96.5458 19.1929C95.168 18.8501 94.1156 17.5989 93.7331 15.8465C93.36 14.1353 93.6529 11.8752 95.0685 10.3863C93.3966 9.51501 91.0935 8.70798 87.9228 8.1474C83.9678 7.44924 80.965 8.11149 78.9914 10.116C74.7851 14.3905 76.4762 23.4402 76.4944 23.5309C76.5454 23.7981 76.3711 24.0574 76.1031 24.1092C75.8412 24.1584 75.5781 23.9867 75.5248 23.7191C75.4484 23.3275 73.7161 14.0729 78.2857 9.42656C80.4993 7.17557 83.7958 6.41843 88.0941 7.17632C91.5747 7.79171 94.0755 8.71403 95.8729 9.7127C97.1381 8.87808 99.29 8.37005 102.717 9.97881C106.895 11.9384 109.459 16.285 110.502 20.4369C112.504 20.0767 114.228 20.6736 115.276 22.1073C116.818 24.2173 117.885 27.4696 118.258 30.4241C119.185 30.6789 120.055 31.2882 120.791 32.2241C123.052 35.1022 122.739 40.254 120.078 43.9527C118.289 46.4399 115.869 47.7395 113.174 47.7395C112.137 47.7403 111.058 47.5479 109.959 47.1566ZM116.28 31.4432C114.88 31.9206 113.733 33.3475 113.722 34.6221C113.715 35.4069 114.173 35.9882 115.045 36.3024C116.019 36.6547 116.463 36.2528 116.713 35.9198C117.381 35.027 117.574 33.2814 117.393 31.2799C117.026 31.2625 116.655 31.3154 116.28 31.4432ZM105.645 25.5471C105.495 26.5326 105.989 27.3763 107.113 28.0552C107.822 28.4846 108.408 28.5651 108.858 28.2975C109.698 27.7958 110.15 26.11 110.039 23.8979C110.003 23.1748 109.911 22.4161 109.762 21.6431C107.675 22.3356 105.882 24.0037 105.645 25.5471ZM94.6981 15.6371C94.9986 17.0142 95.7784 17.9856 96.7854 18.2355C97.5996 18.4377 98.3734 18.223 98.9056 17.6454C99.5743 16.92 99.7391 15.7962 99.349 14.6388C99.0716 13.8189 98.2698 12.3186 95.9618 10.8936C94.6478 12.1047 94.3783 14.1693 94.6981 15.6371Z" fill="#251626"/>
<path d="M172.722 132.026L151.67 125.56L131.276 172.526H99.1536L98.6849 184.136H149.696L172.722 132.026Z" fill="#A1A3AF"/>
<path d="M16.2782 181.074C16.2782 181.074 24.6086 109.659 37.4594 107.044C50.3103 104.428 82.9056 117.79 85.9251 125.808C88.9449 133.825 85.5388 181.074 85.5388 181.074H16.2782Z" fill="url(#paint1_linear_1381_1340)"/>
<path d="M70.0869 91.6351L68.9801 113.933L76.077 117.456C76.077 117.456 74.7582 131.064 68.5446 130.491C54.2853 129.175 51.7263 108.117 51.7263 108.117L59.3252 110.251L62.5053 88.6531L70.0869 91.6351Z" fill="#DEE8ED"/>
<path d="M19.2742 134.923L36.5632 189C36.5632 189 100.056 160.103 102.509 160.543C104.962 160.983 112.603 172.53 117.361 173.451C122.12 174.373 113.575 163.527 113.575 163.527C113.575 163.527 123.809 172.377 125.037 171.149C126.265 169.921 119.364 161.041 119.364 161.041C119.364 161.041 131.024 171.609 130.717 168.539C130.41 165.469 117.515 148.738 107.998 150.273C98.4815 151.808 46.6369 171.302 46.6369 171.302L34.6244 125.56L19.2742 134.923Z" fill="#DEE8ED"/>
<path d="M50.079 39.2519C50.079 39.2519 71.8344 14.8928 96.5646 27.0005C115.067 36.0593 110.962 100.382 80.4312 98.2513C58.7903 96.7408 41.0875 53.14 50.079 39.2519Z" fill="#DEE8ED"/>
<path d="M50.0789 39.2519C50.0789 39.2519 54.2918 80.8621 64.6905 84.2929C83.3532 90.4497 57.7221 67.6042 83.2345 67.8918C99.5936 68.0763 85.6677 82.4448 99.4193 78.3276C109.762 75.2311 99.7421 30.4846 98.2736 28.0661C96.805 25.6481 116.229 35.9002 108.814 64.5745C106.327 74.1916 130.069 79.2655 112.931 94.6081C82.5045 121.846 37.4299 100.559 47.8896 85.7308C62.2797 65.3305 23.577 65.4246 50.0789 39.2519Z" fill="#3466A5"/>
<path d="M89.5637 67.4737C89.8325 67.4737 90.06 67.3513 90.1976 67.1301C91.0727 65.7179 85.8196 56.8334 82.6108 51.6628C82.4664 51.4314 82.1606 51.3626 81.9315 51.5036C81.7002 51.6473 81.6291 51.9512 81.7724 52.1829C85.501 58.1901 89.2175 64.9502 89.3479 66.4634C87.0198 66.1984 80.322 64.8708 80.2528 64.8572C79.9909 64.8028 79.7255 64.9767 79.6726 65.2451C79.6197 65.5119 79.7932 65.7716 80.06 65.8245C80.3568 65.8835 87.3396 67.267 89.4772 67.4685C89.5059 67.4722 89.5346 67.4737 89.5637 67.4737Z" fill="#251626"/>
<path d="M80.5718 84.7215C80.7287 84.7215 80.889 84.6935 81.0489 84.6368C84.0245 83.5826 88.0173 74.528 88.4622 73.4994C88.5699 73.2492 88.4554 72.9589 88.2048 72.8504C87.9561 72.7438 87.665 72.8572 87.5561 73.1071C86.393 75.7939 82.8977 82.9351 80.7189 83.707C80.579 83.7565 80.4732 83.7414 80.3488 83.6556C78.9718 82.7034 78.3261 76.1213 78.2433 72.1957C78.2377 71.927 78.0181 71.713 77.7501 71.713C77.747 71.713 77.7433 71.713 77.7395 71.713C77.4669 71.7187 77.2511 71.9444 77.2568 72.2169C77.2798 73.3078 77.5467 82.9185 79.7882 84.4675C80.0332 84.6361 80.2989 84.7215 80.5718 84.7215Z" fill="#251626"/>
<path d="M69.8903 57.3071C69.9058 57.3071 69.9202 57.3067 69.9357 57.3059C72.2214 57.2182 72.2967 50.7703 72.2649 48.7964C72.26 48.5235 72.0423 48.3197 71.7637 48.3107C71.4908 48.3152 71.2742 48.5394 71.278 48.8119C71.3339 52.336 70.7798 56.2861 69.8971 56.3205C69.8933 56.3205 69.8884 56.3205 69.8847 56.3205C68.9449 56.3209 67.467 52.5027 66.669 48.9132C66.6093 48.6482 66.3481 48.4811 66.0801 48.5382C65.814 48.5976 65.6465 48.861 65.7051 49.1271C66.133 51.0542 67.6941 57.3067 69.8903 57.3071Z" fill="#251626"/>
<path d="M93.1128 55.9629C93.1271 55.9629 93.1415 55.9625 93.1563 55.9618C95.442 55.8737 95.5172 49.4258 95.4855 47.4515C95.4806 47.1786 95.2322 46.9608 94.9843 46.9657C94.7117 46.9699 94.4947 47.1944 94.4985 47.467C94.5545 50.9911 94.0003 54.9415 93.1177 54.9759C93.1128 54.9759 93.1082 54.9759 93.1022 54.9759C92.0846 54.9763 89.8865 51.1309 88.4237 47.5441C88.3205 47.2912 88.0313 47.1699 87.7807 47.2738C87.5282 47.3763 87.4069 47.6647 87.5101 47.9172C88.2831 49.8125 90.9601 55.9621 93.1128 55.9629Z" fill="#251626"/>
<path d="M48.8168 62.3193C48.9476 65.7021 46.3114 68.5499 42.9291 68.6807C39.5467 68.8115 36.6985 66.1753 36.5677 62.793C36.4369 59.4106 39.0731 56.5624 42.4554 56.4316C45.8382 56.3008 48.686 58.937 48.8168 62.3193Z" fill="#DEE8ED"/>
<path d="M118.286 51.6371C118.408 54.7915 115.949 57.4481 112.795 57.5698C109.64 57.6915 106.984 55.233 106.862 52.0786C106.74 48.9242 109.199 46.2676 112.353 46.1459C115.508 46.0241 118.164 48.4827 118.286 51.6371Z" fill="#DEE8ED"/>
<path d="M44.996 65.9878C44.9971 65.9878 44.999 65.9878 44.9997 65.9878C45.2727 65.9859 45.4911 65.7633 45.4893 65.4904C45.4749 63.6144 44.9158 62.2732 43.8268 61.5051C41.992 60.2105 39.3804 61.095 39.2708 61.1336C39.0134 61.2228 38.8777 61.5032 38.9661 61.7603C39.0557 62.0169 39.3362 62.1553 39.5936 62.0657C39.6166 62.057 41.8446 61.3093 43.2613 62.3129C44.0729 62.8879 44.491 63.9595 44.5027 65.4979C44.5046 65.7697 44.7253 65.9878 44.996 65.9878Z" fill="#251626"/>
<path d="M111.974 56.4925C112.033 56.4925 112.093 56.4819 112.15 56.4596C112.405 56.3617 112.532 56.0767 112.435 55.8223C111.663 53.8109 111.583 52.2808 112.203 51.397C112.849 50.4777 114.082 50.4887 114.127 50.4853C114.402 50.4694 114.624 50.2748 114.631 50.0034C114.636 49.7319 114.424 49.5063 114.152 49.4983C114.073 49.498 112.359 49.4666 111.402 50.8195C110.566 52.0007 110.602 53.803 111.513 56.1753C111.588 56.3719 111.775 56.4925 111.974 56.4925Z" fill="#251626"/>
<path d="M66.7186 70.1276C69.0637 67.9106 69.1675 64.2123 66.9505 61.8672C64.7335 59.5221 61.0352 59.4182 58.6901 61.6352C56.345 63.8522 56.2411 67.5505 58.4581 69.8956C60.6751 72.2407 64.3734 72.3446 66.7186 70.1276Z" fill="#CBD6FF"/>
<path d="M102.507 61.9387C102.416 65.1645 99.7278 67.7062 96.5019 67.6155C93.2761 67.5252 90.7344 64.8364 90.8251 61.611C90.9155 58.3851 93.6042 55.8435 96.8296 55.9338C100.055 56.0245 102.597 58.7128 102.507 61.9387Z" fill="#CBD6FF"/>
<path d="M67.9224 100.561C66.717 101.323 64.8183 101.924 61.8869 101.894C56.0491 101.823 53.3933 97.5569 52.8535 93.5886C52.8535 93.5871 52.8535 93.5856 52.8523 93.5849C51.9765 93.6918 51.0213 93.5259 50.0502 93.0704C47.989 92.105 47.0648 89.933 47.4473 86.9555C47.6401 85.4567 48.1451 83.8892 48.8176 82.4894C47.0107 81.8646 46.4528 80.5367 46.3303 79.4129C46.15 77.7459 46.8663 75.6915 47.8548 73.9202C47.2179 73.611 46.7582 73.1453 46.4815 72.5284C45.4689 70.2698 47.4258 66.8062 47.5097 66.6595C47.6446 66.4225 47.9489 66.3416 48.1821 66.4766C48.4192 66.6119 48.5012 66.9136 48.3651 67.1502C47.8639 68.0256 46.7095 70.6266 47.3812 72.1247C47.5709 72.5476 47.8949 72.8603 48.3632 73.0689C49.4038 71.4428 50.6085 70.1954 51.3902 69.9587C52.0166 69.7693 52.5813 69.9277 52.937 70.3949C53.4227 71.0338 53.3842 72.0778 52.8418 72.9351C52.4804 73.5066 51.3694 74.7816 48.8195 74.2422C48.8176 74.2418 48.8145 74.2411 48.8127 74.2407C47.8767 75.8691 47.1476 77.7947 47.3112 79.3067C47.4386 80.4785 48.085 81.2375 49.2772 81.6041C50.37 79.6559 51.7614 78.1878 52.9797 77.9629C54.1485 77.7459 55.3812 78.2139 56.0328 79.129C56.5186 79.8102 56.584 80.6138 56.2082 81.2779C55.8053 81.9897 54.5276 83.1343 50.4985 82.8194C50.2536 82.8001 50.0226 82.7722 49.8049 82.7359C49.1408 84.0664 48.6176 85.5985 48.4267 87.0814C48.1973 88.8621 48.3659 91.1921 50.4687 92.1772C51.3676 92.5979 52.13 92.6875 52.7612 92.6002C52.6293 89.9738 53.4435 87.834 54.8043 87.4393C55.5259 87.2284 56.1398 87.4204 56.4861 87.9655C57.1075 88.9457 56.6728 90.8122 55.5165 92.1262C55.0194 92.6909 54.4448 93.0976 53.8166 93.3426C53.8215 93.38 53.8264 93.4182 53.8321 93.4563C54.316 97.0171 56.6894 100.845 61.899 100.908C64.8111 100.939 66.5065 100.344 67.5441 99.634C67.3226 99.0027 67.1789 98.3926 67.1018 97.8457C66.8262 95.9009 67.2511 94.5166 68.1848 94.3182C68.6936 94.2138 69.2042 94.4282 69.5841 94.9192C70.17 95.6756 70.4668 97.1592 69.7353 98.63C69.5418 99.0178 69.2303 99.4873 68.7302 99.9474C69.7833 102.331 72.13 104.771 76.5216 104.456C79.0069 104.274 80.9854 103.225 82.4414 101.875C82.0646 101.643 81.764 101.402 81.5297 101.178C80.3118 100.018 79.8143 98.3809 80.198 96.7986C80.5756 95.2371 81.7368 94.0305 83.3029 93.5705C84.6482 93.1743 85.4114 93.6128 85.8105 94.0509C86.6229 94.9426 86.652 96.6886 85.8865 98.6058C85.5002 99.572 84.8996 100.606 84.0891 101.57C85.7206 102.142 88.3341 102.337 92.4267 101.134C96.6504 99.8925 98.7215 98.2732 99.7285 96.895C98.1519 96.4255 96.9763 95.5009 96.6002 94.3756C96.2736 93.3966 96.5866 92.3749 97.482 91.4987C98.1333 90.8606 99.0141 90.7079 99.8294 91.0878C101.009 91.6363 101.75 93.1078 101.633 94.6659C101.605 95.0485 101.51 95.5796 101.25 96.1961C102.635 96.3386 106.64 96.3201 109.547 91.8997C110.259 90.8187 110.797 89.851 111.195 88.994C110.209 88.5518 109.35 87.9292 108.754 87.2571C107.614 85.9708 107.504 84.621 108.469 83.7353C109.65 82.6501 111.221 82.4717 112.204 83.3074C112.675 83.7089 113.766 85.0715 112.506 88.4206C114.001 88.8436 115.66 88.7446 116.926 87.6612C118.549 86.2717 118.655 82.9101 117.183 79.4873C116.424 77.7225 115.131 75.823 113.459 74.706C113.296 75.3687 112.955 75.8979 112.383 76.2018C110.832 77.0269 109.148 76.6025 108.241 75.8593C107.607 75.3399 107.334 74.6754 107.513 74.0823C107.663 73.5788 108.185 72.9434 109.817 72.7718C110.805 72.6667 111.728 72.8153 112.584 73.1441C112.506 72.1269 112.171 70.8527 111.591 69.4889C111.249 68.6871 110.858 67.9485 110.449 67.3086C109.809 67.7047 109.034 67.8279 108.203 67.634C106.938 67.3403 105.916 66.3881 105.874 65.4662C105.861 65.1475 105.957 64.3636 107.155 63.9704C108.302 63.5932 109.522 64.4259 110.596 65.7917C110.627 65.7425 110.657 65.6911 110.687 65.6371C112.307 62.6784 108.277 59.1869 108.237 59.1517C108.029 58.9748 108.004 58.6637 108.182 58.4566C108.358 58.2483 108.67 58.2252 108.876 58.4006C109.068 58.5643 113.558 62.4486 111.553 66.1114C111.448 66.3038 111.329 66.48 111.201 66.6395C111.688 67.3891 112.129 68.235 112.499 69.1018C113.113 70.5469 113.586 72.2297 113.581 73.6242C115.64 74.8202 117.205 77.0398 118.09 79.0972C119.478 82.3231 119.855 86.4539 117.568 88.4108C115.95 89.7947 113.912 89.8876 112.121 89.3418C111.709 90.2464 111.14 91.2745 110.372 92.4418C108.118 95.8684 104.593 97.6317 100.967 97.1554C100.896 97.1464 100.825 97.1362 100.756 97.1256C99.7111 98.7468 97.4699 100.68 92.7045 102.08C88.0876 103.438 85.1657 103.086 83.3724 102.347C81.7497 103.952 79.4821 105.229 76.593 105.44C76.2982 105.461 76.0109 105.472 75.7327 105.472C71.4552 105.471 69.0731 103.02 67.9224 100.561ZM83.5803 94.5159C82.3575 94.8757 81.4507 95.8154 81.1566 97.0299C80.8568 98.2653 81.2511 99.5489 82.2101 100.463C82.4426 100.684 82.7506 100.925 83.1506 101.149C83.9822 100.212 84.5903 99.1891 84.9699 98.2388C85.575 96.7223 85.6193 95.3059 85.0806 94.7136C84.8909 94.5053 84.624 94.401 84.2815 94.401C84.0748 94.401 83.8412 94.4395 83.5803 94.5159ZM68.3889 95.2832C68.2143 95.3203 67.8529 96.1216 68.0786 97.7062C68.1315 98.0846 68.2211 98.4973 68.3515 98.9268C68.5817 98.6652 68.7408 98.4112 68.8516 98.1893C69.3702 97.1486 69.2197 96.06 68.8043 95.5229C68.7302 95.4276 68.5904 95.2783 68.4373 95.2783C68.4206 95.2779 68.4055 95.2798 68.3889 95.2832ZM98.1719 92.2029C97.5437 92.8175 97.3297 93.4431 97.5357 94.0619C97.8249 94.9264 98.8742 95.6623 100.254 96.0158C100.529 95.4371 100.623 94.9415 100.649 94.5907C100.746 93.3002 100.101 92.3015 99.4129 91.9818C99.276 91.9175 99.1093 91.8665 98.9264 91.8665C98.6916 91.8661 98.4293 91.9508 98.1719 92.2029ZM55.0799 88.3862C54.3311 88.6036 53.6923 90.184 53.7384 92.2906C54.195 92.0574 54.539 91.7429 54.7764 91.4737C55.7573 90.3583 55.9512 88.9638 55.6522 88.494C55.6193 88.4429 55.555 88.3412 55.3524 88.3412C55.2802 88.3416 55.1906 88.3541 55.0799 88.3862ZM109.136 84.4607C108.37 85.1645 109.13 86.1923 109.493 86.6013C110.008 87.1823 110.743 87.7085 111.58 88.0823C112.406 85.9035 112.189 84.5885 111.564 84.0577C111.333 83.8608 111.038 83.7652 110.717 83.7652C110.208 83.7656 109.632 84.0056 109.136 84.4607ZM53.1593 78.9328C52.3345 79.0852 51.2424 80.2263 50.3076 81.8094C50.3953 81.8196 50.4842 81.8275 50.5756 81.8347C54.2895 82.1292 55.1695 81.1097 55.3498 80.7911C55.6023 80.3443 55.3827 79.916 55.2292 79.7005C54.9226 79.2719 54.3156 78.8943 53.5709 78.8943C53.4379 78.8946 53.2999 78.9067 53.1593 78.9328ZM109.921 73.7516C108.947 73.854 108.527 74.1352 108.458 74.3639C108.401 74.5571 108.56 74.844 108.867 75.095C109.529 75.6386 110.766 75.9444 111.921 75.3297C112.262 75.1483 112.473 74.7529 112.559 74.2003C111.745 73.8306 110.857 73.6559 109.921 73.7516ZM51.676 70.9026C51.1634 71.0583 50.2392 72.0302 49.371 73.3373C50.5726 73.5044 51.5229 73.174 52.0086 72.4067C52.3507 71.8657 52.3496 71.2507 52.1523 70.9918C52.1236 70.9529 52.057 70.8667 51.8881 70.8667C51.8302 70.8667 51.7611 70.8769 51.676 70.9026ZM107.464 64.9075C107.183 64.9997 106.849 65.1638 106.861 65.422C106.88 65.8446 107.553 66.469 108.427 66.672C108.789 66.7578 109.352 66.8036 109.884 66.4985C108.994 65.343 108.086 64.7026 107.464 64.9075Z" fill="#251626"/>
<path d="M77.679 23.9557C77.679 23.9557 51.346 36.8478 40.5458 55.4692L33.0686 41.9984C33.0686 41.9984 49.1933 19.4832 75.6684 18.2264L77.679 23.9557Z" fill="#568CBB"/>
<path d="M40.5439 35.0274C40.7087 35.0274 40.8697 34.945 40.9631 34.7945C49.2496 21.4674 74.435 16.784 74.6886 16.7382C74.9566 16.6895 75.1347 16.4332 75.0867 16.1648C75.0375 15.896 74.7775 15.7195 74.5132 15.7668C74.4486 15.7785 67.992 16.9616 60.5824 19.8076C53.7123 22.4456 44.5874 27.0973 40.1247 34.2733C39.981 34.505 40.0525 34.8089 40.2838 34.9529C40.3647 35.0036 40.4543 35.0274 40.5439 35.0274Z" fill="#251626"/>
<path d="M46.6822 47.5732C46.7593 47.5732 46.8372 47.5554 46.9105 47.5172C47.1517 47.3914 47.2458 47.0939 47.1196 46.852L40.9808 35.0652C40.8546 34.8232 40.556 34.7303 40.3148 34.8558C40.074 34.9816 39.9795 35.2791 40.1058 35.521L46.2445 47.3078C46.3326 47.4764 46.5049 47.5732 46.6822 47.5732Z" fill="#251626"/>
<path d="M56.8588 37.3415C56.9223 37.3415 56.9869 37.3294 57.0485 37.3033C57.2999 37.1982 57.4186 36.909 57.3135 36.6577L52.5288 25.2031C52.4237 24.9506 52.1327 24.8331 51.8843 24.9382C51.6329 25.0433 51.5143 25.3324 51.6193 25.5838L56.4041 37.0383C56.4831 37.2277 56.666 37.3415 56.8588 37.3415Z" fill="#251626"/>
<path d="M66.1871 31.1714C66.2759 31.1714 66.3662 31.148 66.4471 31.0977C66.6784 30.954 66.7495 30.6501 66.6062 30.4184L61.1411 21.5955C60.9975 21.3638 60.6932 21.292 60.4619 21.4356C60.2305 21.5793 60.1591 21.8832 60.3027 22.1149L65.7678 30.9378C65.8612 31.0886 66.0222 31.1714 66.1871 31.1714Z" fill="#251626"/>
<path d="M72.5114 26.7597C72.5556 26.7597 72.6021 26.7537 72.6471 26.7408C72.909 26.6656 73.0606 26.3923 72.9854 26.1304L70.4278 17.1877C70.3537 16.9261 70.0827 16.7741 69.8177 16.849C69.5558 16.9242 69.4042 17.1975 69.4794 17.4594L72.037 26.4022C72.099 26.6188 72.2967 26.7597 72.5114 26.7597Z" fill="#251626"/>
<path d="M71.7735 6.76884C71.8525 6.76884 71.9315 6.74994 72.0056 6.71063C72.2464 6.58249 72.3371 6.28311 72.209 6.04271C71.6182 4.93932 69.7728 3.03382 67.0504 3.70931C66.7854 3.77546 66.6244 4.04271 66.6902 4.30731C66.7556 4.57153 67.0198 4.73256 67.2878 4.66716C69.9648 4.00037 71.3245 6.48308 71.3381 6.5084C71.4277 6.67472 71.5981 6.76884 71.7735 6.76884Z" fill="#251626"/>
<path d="M65.758 8.98581C65.8359 8.98581 65.916 8.96654 65.9905 8.92647C66.2305 8.79795 66.3213 8.50008 66.1927 8.26005C65.6019 7.15705 63.7565 5.24966 61.0342 5.92666C60.7692 5.99205 60.6082 6.26006 60.6739 6.52466C60.7393 6.78812 61.0024 6.95066 61.2716 6.88451C63.9304 6.22717 65.267 8.62407 65.3226 8.72651C65.4122 8.89207 65.5819 8.98581 65.758 8.98581Z" fill="#251626"/>
<path d="M61.4507 4.01889C61.5769 4.01889 61.7032 3.97089 61.7996 3.8745C61.9912 3.68172 61.9924 3.37062 61.7996 3.17822C60.9158 2.29219 58.604 0.997915 56.187 2.43583C55.9531 2.57493 55.8759 2.87809 56.0154 3.11245C56.156 3.34643 56.4607 3.42203 56.6921 3.28406C59.0436 1.88432 61.0198 3.79436 61.1029 3.87639C61.1989 3.97089 61.3244 4.01889 61.4507 4.01889Z" fill="#251626"/>
<path d="M56.4395 7.39216C56.5658 7.39216 56.692 7.34378 56.7884 7.24777C56.9801 7.05499 56.9812 6.74389 56.7884 6.55149C55.9047 5.66584 53.5921 4.37156 51.1759 5.8091C50.9415 5.9482 50.8648 6.25136 51.0043 6.48572C51.1449 6.71932 51.4503 6.79454 51.6809 6.65733C54.0321 5.25722 56.0086 7.16725 56.0914 7.24928C56.1878 7.34416 56.3133 7.39216 56.4395 7.39216Z" fill="#251626"/>
<path d="M73.5338 12.3511C73.6457 12.3511 73.7584 12.3137 73.851 12.2359C74.06 12.0608 74.0872 11.7497 73.9118 11.5407C73.8098 11.4186 71.3736 8.55489 68.7948 9.29653C68.5329 9.37099 68.3813 9.64429 68.4565 9.90662C68.5306 10.1667 68.8047 10.319 69.0666 10.2449C71.0326 9.68511 73.135 12.1497 73.1562 12.175C73.2537 12.2907 73.3932 12.3511 73.5338 12.3511Z" fill="#251626"/>
<path d="M51.7263 153.088L22.7288 160.325C22.7288 160.325 3.54603 110.276 37.4598 107.043L51.7263 153.088Z" fill="url(#paint2_linear_1381_1340)"/>
<path d="M86.5231 156.198C86.7571 156.198 86.9654 156.029 87.0077 155.79C89.6741 140.688 83.3815 128.314 83.318 128.192C83.1907 127.949 82.8932 127.856 82.6531 127.981C82.4112 128.106 82.316 128.404 82.4411 128.646C82.5038 128.766 88.6433 140.857 86.0366 155.618C85.9894 155.887 86.1685 156.143 86.4365 156.19C86.4653 156.195 86.4944 156.198 86.5231 156.198Z" fill="#251626"/>
<path d="M25.0123 160.248C25.0576 160.248 25.1037 160.242 25.1491 160.229L54.6036 151.731C54.8486 151.66 54.9998 151.414 54.9514 151.164L49.3063 121.715C49.2553 121.447 48.9911 121.272 48.7291 121.323C48.4611 121.375 48.2857 121.633 48.3371 121.901L53.8975 150.907L24.8758 159.281C24.6135 159.356 24.4634 159.63 24.5386 159.892C24.601 160.108 24.7976 160.248 25.0123 160.248Z" fill="#251626"/>
<path d="M120.258 162.719C120.36 162.719 120.462 162.689 120.55 162.624C120.77 162.464 120.817 162.155 120.656 161.934C119.969 160.995 118.062 159.042 117.981 158.959C117.79 158.765 117.478 158.761 117.284 158.951C117.089 159.142 117.085 159.454 117.276 159.649C117.295 159.669 119.214 161.635 119.86 162.518C119.957 162.649 120.107 162.719 120.258 162.719Z" fill="#251426"/>
<path d="M114.766 165.606C114.867 165.606 114.967 165.576 115.055 165.513C115.276 165.354 115.326 165.046 115.167 164.825C114.7 164.176 112.992 162.66 112.799 162.49C112.598 162.31 112.286 162.328 112.103 162.533C111.922 162.737 111.942 163.049 112.146 163.229C112.648 163.673 114.025 164.927 114.365 165.401C114.462 165.535 114.613 165.606 114.766 165.606Z" fill="#251426"/>
<path d="M138.647 91.5754C138.647 91.5754 118.804 89.6427 114.427 104.151C107.648 126.616 138.836 133.527 138.836 133.527L133.854 125.087C133.854 125.087 154.802 126.805 158.256 114.375C161.71 101.946 147.625 90.8807 138.647 91.5754Z" fill="#F0D033"/>
<path d="M143.829 109.089C143.829 107.093 145.451 105.47 147.447 105.47C149.443 105.47 151.066 107.093 151.066 109.089C151.066 111.084 149.443 112.708 147.447 112.708C145.451 112.708 143.829 111.084 143.829 109.089ZM144.816 109.089C144.816 110.54 145.996 111.721 147.447 111.721C148.898 111.721 150.079 110.54 150.079 109.089C150.079 107.638 148.898 106.457 147.447 106.457C145.996 106.457 144.816 107.637 144.816 109.089Z" fill="#251426"/>
<path d="M121.807 109.089C121.807 107.093 123.43 105.47 125.426 105.47C127.422 105.47 129.044 107.093 129.044 109.089C129.044 111.084 127.422 112.708 125.426 112.708C123.43 112.708 121.807 111.084 121.807 109.089ZM122.794 109.089C122.794 110.54 123.974 111.721 125.425 111.721C126.876 111.721 128.057 110.54 128.057 109.089C128.057 107.638 126.876 106.457 125.425 106.457C123.974 106.457 122.794 107.637 122.794 109.089Z" fill="#251426"/>
<path d="M132.344 109.089C132.344 107.093 133.967 105.47 135.962 105.47C137.958 105.47 139.581 107.093 139.581 109.089C139.581 111.084 137.958 112.708 135.962 112.708C133.967 112.708 132.344 111.084 132.344 109.089ZM133.33 109.089C133.33 110.54 134.511 111.721 135.962 111.721C137.413 111.721 138.594 110.54 138.594 109.089C138.594 107.638 137.413 106.457 135.962 106.457C134.511 106.457 133.33 107.637 133.33 109.089Z" fill="#251426"/>
</g>
<defs>
<linearGradient id="paint0_linear_1381_1340" x1="92.2683" y1="118.385" x2="92.2683" y2="160.325" gradientUnits="userSpaceOnUse">
<stop stop-color="#1E4F7C"/>
</linearGradient>
<linearGradient id="paint1_linear_1381_1340" x1="51.7261" y1="106.71" x2="51.7261" y2="181.074" gradientUnits="userSpaceOnUse">
<stop stop-color="#1E4F7C"/>
</linearGradient>
<linearGradient id="paint2_linear_1381_1340" x1="34.5252" y1="107.043" x2="34.5252" y2="160.325" gradientUnits="userSpaceOnUse">
<stop stop-color="#1E4F7C"/>
</linearGradient>
<clipPath id="clip0_1381_1340">
<rect width="189" height="189" fill="white"/>
</clipPath>
</defs>
</svg>
